# xmcd
#
# Track frame offsets:
#	150
#	18233
#	35632
#	53664
#	69120
#	89658
#	107672
#	124771
#	141524
#	158831
#	178256
#	191102
#	209081
#	224576
#	240568
#	256798
#	275075
#	292325
#	310571
#	331951
#
# Disc length: 4619
#
# Revision: 1
# Processed by: cddbd v1.5.1PL0 Copyright (c) Steve Scherf et al.
# Submitted via: CDex 1.50beta9
# Normalized: r0:TDELIM( - )
#
DISCID=3b120914
DTITLE=Various Artist - Country 2003
DYEAR=2003
DGENRE=Country
TTITLE0=Kenny Chesney - Big Star
TTITLE1=Alan Jackson - It's Five O'Clock Somewhere
TTITLE2=Pat Green - Wave on Wave
TTITLE3=Toby Keith - Beer For My Horses
TTITLE4=Faith Hill - If I Should Fall Behind
TTITLE5=Brooks and Dunn - Red Dirt Road
TTITLE6=Chris Cagle - I Breathe In, I Breathe Out
TTITLE7=Diamon Rio - Beautiful Mess
TTITLE8=Dixie Chicks - Landslide
TTITLE9=Keith Urban - Who Wouldn't Wanne Be Me
TTITLE10=George Strait - Blame It On Mexico
TTITLE11=Toby Keith - Who's Your Daddy
TTITLE12=Joe Nichols - She Only Smokes When She Drinks
TTITLE13=Kenny Chesney - No Problems
TTITLE14=Lonestar - My Front Porch Looking In
TTITLE15=Martina McBride - This Ones For The Girls
TTITLE16=Brad Paisley - Celebrity
TTITLE17=Montgomery Gentry - Speed
TTITLE18=Shania Twain - Forever And For Always
TTITLE19=Toby Keith - Angry American
EXTD=YEAR: 2003
EXTT0=
EXTT1=
EXTT2=
EXTT3=
EXTT4=
EXTT5=
EXTT6=
EXTT7=
EXTT8=
EXTT9=
EXTT10=
EXTT11=
EXTT12=
EXTT13=
EXTT14=
EXTT15=
EXTT16=
EXTT17=
EXTT18=
EXTT19=
PLAYORDER=
